<svg width="148" height="82" viewBox="0 0 148 82" fill="none" xmlns="http://www.w3.org/2000/svg">
<path d="M43.0345 42.4828C43.0345 54.3665 33.4009 64.0001 21.5172 64.0001C9.6336 64.0001 0 54.3665 0 42.4828C0 30.5992 9.6336 20.9656 21.5172 20.9656C33.4009 20.9656 43.0345 30.5992 43.0345 42.4828ZM6.10266 42.4828C6.10266 50.9961 13.004 57.8974 21.5172 57.8974C30.0305 57.8974 36.9318 50.9961 36.9318 42.4828C36.9318 33.9696 30.0305 27.0682 21.5172 27.0682C13.004 27.0682 6.10266 33.9696 6.10266 42.4828Z" fill="black"/>
<circle cx="21.5171" cy="45.7931" r="7.44828" fill="black"/>
<path d="M48.805 60V24.58H56.395L71.465 45.755V24.58H80.375V60H72.73L57.66 38.88V60H48.805ZM97.248 60.55C94.9013 60.55 92.7013 60.3667 90.648 60C88.6313 59.67 86.8896 59.175 85.423 58.515V50.98C87.0363 51.6767 88.8146 52.245 90.758 52.685C92.738 53.125 94.608 53.345 96.368 53.345C98.568 53.345 100.2 53.1433 101.263 52.74C102.363 52.3367 102.913 51.4567 102.913 50.1C102.913 49.1833 102.638 48.45 102.088 47.9C101.575 47.35 100.713 46.8733 99.503 46.47C98.3296 46.03 96.7163 45.5167 94.663 44.93C92.243 44.1967 90.318 43.39 88.888 42.51C87.458 41.5933 86.4313 40.4933 85.808 39.21C85.1846 37.9267 84.873 36.35 84.873 34.48C84.873 31.1067 86.083 28.5217 88.503 26.725C90.923 24.9283 94.498 24.03 99.228 24.03C101.281 24.03 103.28 24.195 105.223 24.525C107.166 24.8183 108.743 25.1667 109.953 25.57V33.16C108.376 32.5367 106.781 32.0783 105.168 31.785C103.591 31.4917 102.051 31.345 100.548 31.345C98.568 31.345 96.9546 31.5283 95.708 31.895C94.498 32.2617 93.893 33.105 93.893 34.425C93.893 35.195 94.113 35.8183 94.553 36.295C94.993 36.735 95.7446 37.1383 96.808 37.505C97.908 37.8717 99.393 38.3117 101.263 38.825C104.16 39.595 106.378 40.53 107.918 41.63C109.458 42.6933 110.521 43.94 111.108 45.37C111.695 46.7633 111.988 48.34 111.988 50.1C111.988 53.2167 110.778 55.7467 108.358 57.69C105.938 59.5967 102.235 60.55 97.248 60.55ZM116.481 60V24.58H133.916C136.739 24.58 139.067 25.1483 140.901 26.285C142.734 27.385 144.091 28.8883 144.971 30.795C145.887 32.7017 146.346 34.8467 146.346 37.23C146.346 39.65 145.832 41.795 144.806 43.665C143.779 45.535 142.312 47.0017 140.406 48.065C138.536 49.0917 136.299 49.605 133.696 49.605H125.336V60H116.481ZM125.336 42.785H131.716C133.586 42.785 134.979 42.2717 135.896 41.245C136.849 40.2183 137.326 38.8617 137.326 37.175C137.326 35.3417 136.886 33.93 136.006 32.94C135.162 31.9133 133.824 31.4 131.991 31.4H125.336V42.785Z" fill="black"/>
</svg>
