<svg width="148" height="72" viewBox="0 0 148 72" fill="none" xmlns="http://www.w3.org/2000/svg">
<path d="M43.0345 32.4828C43.0345 44.3665 33.4009 54.0001 21.5172 54.0001C9.6336 54.0001 0 44.3665 0 32.4828C0 20.5992 9.6336 10.9656 21.5172 10.9656C33.4009 10.9656 43.0345 20.5992 43.0345 32.4828ZM6.10266 32.4828C6.10266 40.9961 13.004 47.8974 21.5172 47.8974C30.0305 47.8974 36.9318 40.9961 36.9318 32.4828C36.9318 23.9696 30.0305 17.0682 21.5172 17.0682C13.004 17.0682 6.10266 23.9696 6.10266 32.4828Z" fill="white"/>
<circle cx="21.5172" cy="35.7931" r="7.44828" fill="white"/>
<path d="M48.805 50V14.58H56.395L71.465 35.755V14.58H80.375V50H72.73L57.66 28.88V50H48.805ZM97.248 50.55C94.9013 50.55 92.7013 50.3667 90.648 50C88.6313 49.67 86.8896 49.175 85.423 48.515V40.98C87.0363 41.6767 88.8146 42.245 90.758 42.685C92.738 43.125 94.608 43.345 96.368 43.345C98.568 43.345 100.2 43.1433 101.263 42.74C102.363 42.3367 102.913 41.4567 102.913 40.1C102.913 39.1833 102.638 38.45 102.088 37.9C101.575 37.35 100.713 36.8733 99.503 36.47C98.3296 36.03 96.7163 35.5167 94.663 34.93C92.243 34.1967 90.318 33.39 88.888 32.51C87.458 31.5933 86.4313 30.4933 85.808 29.21C85.1846 27.9267 84.873 26.35 84.873 24.48C84.873 21.1067 86.083 18.5217 88.503 16.725C90.923 14.9283 94.498 14.03 99.228 14.03C101.281 14.03 103.28 14.195 105.223 14.525C107.166 14.8183 108.743 15.1667 109.953 15.57V23.16C108.376 22.5367 106.781 22.0783 105.168 21.785C103.591 21.4917 102.051 21.345 100.548 21.345C98.568 21.345 96.9546 21.5283 95.708 21.895C94.498 22.2617 93.893 23.105 93.893 24.425C93.893 25.195 94.113 25.8183 94.553 26.295C94.993 26.735 95.7446 27.1383 96.808 27.505C97.908 27.8717 99.393 28.3117 101.263 28.825C104.16 29.595 106.378 30.53 107.918 31.63C109.458 32.6933 110.521 33.94 111.108 35.37C111.695 36.7633 111.988 38.34 111.988 40.1C111.988 43.2167 110.778 45.7467 108.358 47.69C105.938 49.5967 102.235 50.55 97.248 50.55ZM116.481 50V14.58H133.916C136.739 14.58 139.067 15.1483 140.901 16.285C142.734 17.385 144.091 18.8883 144.971 20.795C145.887 22.7017 146.346 24.8467 146.346 27.23C146.346 29.65 145.832 31.795 144.806 33.665C143.779 35.535 142.312 37.0017 140.406 38.065C138.536 39.0917 136.299 39.605 133.696 39.605H125.336V50H116.481ZM125.336 32.785H131.716C133.586 32.785 134.979 32.2717 135.896 31.245C136.849 30.2183 137.326 28.8617 137.326 27.175C137.326 25.3417 136.886 23.93 136.006 22.94C135.162 21.9133 133.824 21.4 131.991 21.4H125.336V32.785Z" fill="white"/>
</svg>
